<svg width="17" height="17" viewBox="0 0 17 17" fill="none" xmlns="http://www.w3.org/2000/svg">
<path d="M12.1391 5.09648C12.1391 5.22677 12.0335 5.33238 11.9032 5.33238C11.7729 5.33238 11.6673 5.22677 11.6673 5.09648C11.6673 4.9662 11.7729 4.86058 11.9032 4.86058C12.0335 4.86058 12.1391 4.9662 12.1391 5.09648Z" fill="white" stroke="white" stroke-width="1.0582"/>
<path d="M8.50013 5.22638C7.85268 5.22638 7.21977 5.41837 6.68143 5.77807C6.1431 6.13778 5.72352 6.64904 5.47575 7.2472C5.22798 7.84537 5.16315 8.50357 5.28946 9.13858C5.41578 9.77359 5.72755 10.3569 6.18537 10.8147C6.64318 11.2725 7.22648 11.5843 7.86149 11.7106C8.49649 11.8369 9.1547 11.7721 9.75286 11.5243C10.351 11.2766 10.8623 10.857 11.222 10.3186C11.5817 9.7803 11.7737 9.14739 11.7737 8.49994C11.7737 7.63174 11.4288 6.7991 10.8149 6.18518C10.201 5.57127 9.36833 5.22638 8.50013 5.22638ZM8.50013 10.6249C8.07984 10.6249 7.66899 10.5003 7.31954 10.2668C6.97009 10.0333 6.69772 9.70144 6.53688 9.31314C6.37605 8.92485 6.33396 8.49758 6.41596 8.08537C6.49795 7.67316 6.70034 7.29453 6.99752 6.99734C7.29471 6.70015 7.67335 6.49777 8.08556 6.41577C8.49777 6.33378 8.92504 6.37586 9.31333 6.5367C9.70162 6.69753 10.0335 6.9699 10.267 7.31935C10.5005 7.66881 10.6251 8.07966 10.6251 8.49994C10.6251 9.06353 10.4012 9.60403 10.0027 10.0025C9.60421 10.4011 9.06371 10.6249 8.50013 10.6249Z" fill="white" stroke="white" stroke-width="0.4"/>
<path d="M8.5 3.27332C10.2021 3.27332 10.404 3.27969 11.076 3.31051C11.4802 3.3153 11.8806 3.38952 12.2597 3.52991C12.5347 3.636 12.7844 3.79848 12.9928 4.00691C13.2013 4.21534 13.3638 4.46509 13.4698 4.7401C13.6102 5.11916 13.6844 5.51953 13.6892 5.92372C13.7201 6.59576 13.7264 6.79763 13.7264 8.50029C13.7264 10.2029 13.7201 10.4038 13.6892 11.0758C13.6844 11.48 13.6102 11.8804 13.4698 12.2594C13.3638 12.5344 13.2013 12.7842 12.9928 12.9926C12.7844 13.201 12.5347 13.3635 12.2597 13.4696C11.8806 13.61 11.4802 13.6842 11.076 13.689C10.404 13.7198 10.2021 13.7262 8.5 13.7262C6.79787 13.7262 6.596 13.7198 5.92397 13.689C5.51977 13.6842 5.11941 13.61 4.74034 13.4696C4.46534 13.3635 4.21558 13.201 4.00715 12.9926C3.79873 12.7842 3.63624 12.5344 3.53016 12.2594C3.38976 11.8804 3.31555 11.48 3.31075 11.0758C3.27994 10.4038 3.27356 10.2019 3.27356 8.49976C3.27356 6.79763 3.27994 6.59576 3.31075 5.92372C3.31555 5.51953 3.38976 5.11916 3.53016 4.7401C3.63624 4.46509 3.79873 4.21534 4.00715 4.00691C4.21558 3.79848 4.46534 3.636 4.74034 3.52991C5.11941 3.38952 5.51977 3.3153 5.92397 3.31051C6.596 3.27969 6.79787 3.27332 8.5 3.27332V3.27332ZM8.5 2.12476C6.76866 2.12476 6.55137 2.13219 5.87137 2.16301C5.34266 2.17368 4.81958 2.27391 4.32437 2.45944C3.90082 2.62323 3.51616 2.8737 3.19505 3.19481C2.87394 3.51592 2.62347 3.90058 2.45969 4.32413C2.2741 4.81951 2.17387 5.34277 2.16325 5.87166C2.13244 6.55166 2.125 6.76788 2.125 8.49976C2.125 10.2316 2.13244 10.4484 2.16325 11.1284C2.17393 11.6571 2.27416 12.1802 2.45969 12.6754C2.62347 13.0989 2.87394 13.4836 3.19505 13.8047C3.51616 14.1258 3.90082 14.3763 4.32437 14.5401C4.81975 14.7257 5.34301 14.8259 5.87191 14.8365C6.55191 14.8673 6.76866 14.8748 8.5 14.8748C10.2313 14.8748 10.4486 14.8673 11.1286 14.8365C11.6575 14.8259 12.1808 14.7257 12.6762 14.5401C13.0997 14.3763 13.4844 14.1258 13.8055 13.8047C14.1266 13.4836 14.3771 13.0989 14.5408 12.6754C14.7262 12.18 14.8263 11.6567 14.8367 11.1278C14.8676 10.4478 14.875 10.2316 14.875 8.49976C14.875 6.76788 14.8676 6.55113 14.8367 5.87113C14.8261 5.34242 14.7258 4.81934 14.5403 4.32413C14.3765 3.90058 14.1261 3.51592 13.8049 3.19481C13.4838 2.8737 13.0992 2.62323 12.6756 2.45944C12.1802 2.27404 11.657 2.17398 11.1281 2.16354C10.4481 2.13166 10.2319 2.12476 8.5 2.12476Z" fill="white" stroke="white" stroke-width="0.4"/>
</svg>
