<svg width="17" height="17" viewBox="0 0 17 17" fill="none" xmlns="http://www.w3.org/2000/svg">
<path d="M15.246 4.31726C14.7408 4.5409 14.2049 4.68739 13.6562 4.75182C14.2338 4.4059 14.6662 3.8619 14.8727 3.22103C14.3294 3.543 13.7353 3.77036 13.1159 3.89338C12.7364 3.48769 12.2437 3.20557 11.7017 3.08369C11.1597 2.9618 10.5936 3.00581 10.077 3.20997C9.56035 3.41414 9.1171 3.76902 8.80487 4.22847C8.49263 4.68793 8.32586 5.2307 8.32623 5.78621C8.32623 6.00377 8.3504 6.21458 8.39931 6.4164C7.29831 6.36221 6.22108 6.07663 5.23783 5.57827C4.25458 5.07991 3.38737 4.37996 2.69273 3.52404C2.44592 3.94651 2.31647 4.42725 2.31776 4.91653C2.31776 5.87615 2.80516 6.72391 3.54947 7.2203C3.10983 7.20635 2.67994 7.08722 2.29584 6.87288V6.9083C2.29546 7.54758 2.51645 8.16728 2.92126 8.66206C3.32606 9.15685 3.88971 9.49621 4.51641 9.62245C4.10887 9.73422 3.68109 9.75076 3.26614 9.6708C3.44289 10.2208 3.78701 10.7018 4.25043 11.0467C4.71386 11.3916 5.27343 11.5831 5.851 11.5945C5.27682 12.0452 4.6194 12.3782 3.91637 12.5745C3.21334 12.7708 2.4785 12.8266 1.75391 12.7386C3.01908 13.5527 4.49209 13.9851 5.9966 13.9838C11.0887 13.9838 13.8737 9.76524 13.8737 6.10664C13.8737 5.98859 13.8692 5.86716 13.8647 5.74854C14.4058 5.35674 14.8734 4.87238 15.246 4.31782V4.31726Z" fill="white"/>
</svg>
